<svg width="110" height="110" viewBox="0 0 110 110" fill="none" xmlns="http://www.w3.org/2000/svg">
<rect x="5.5" y="5.5" width="99" height="99" rx="6.5" stroke="black"/>
<path d="M14.712 72V70.416C15.672 70.416 16.408 70.16 16.92 69.648C17.432 69.136 17.848 68.432 18.168 67.536C18.52 66.64 18.92 65.6 19.368 64.416L29.256 37.488H30.408L41.112 64.8C41.368 65.472 41.656 66.336 41.976 67.392C42.296 68.448 42.424 69.344 42.36 70.08C42.904 70.048 43.448 70.016 43.992 69.984C44.536 69.952 45.08 69.92 45.624 69.888V72H34.632V70.416C35.848 70.384 36.648 70.112 37.032 69.6C37.416 69.088 37.56 68.48 37.464 67.776C37.368 67.072 37.208 66.432 36.984 65.856L35.304 61.344L22.824 61.632L21.144 66.768C20.92 67.536 20.712 68.144 20.52 68.592C20.36 69.04 20.168 69.536 19.944 70.08C20.584 70.048 21.208 70.016 21.816 69.984C22.456 69.952 23.08 69.92 23.688 69.888V72H14.712ZM23.544 59.568H34.632L31.224 50.4C30.872 49.408 30.504 48.432 30.12 47.472C29.768 46.48 29.416 45.488 29.064 44.496H28.968C28.648 45.392 28.312 46.288 27.96 47.184C27.64 48.08 27.304 48.992 26.952 49.92L23.544 59.568ZM71.0629 72.48C69.6549 69.28 68.2309 66.096 66.7909 62.928C65.3509 59.728 63.9429 56.496 62.5669 53.232C62.1189 52.208 61.6709 51.184 61.2229 50.16C60.8069 49.104 60.3909 48.048 59.9749 46.992C59.5909 45.936 59.1909 44.88 58.7749 43.824C58.7749 44.176 58.7589 44.528 58.7269 44.88C58.7269 45.232 58.7269 45.584 58.7269 45.936C58.6949 47.088 58.6469 48.48 58.5829 50.112C58.5509 51.712 58.5029 53.44 58.4389 55.296C58.3749 57.12 58.3269 58.96 58.2949 60.816C58.2629 62.64 58.2309 64.368 58.1989 66C58.1669 66.704 58.1349 67.408 58.1029 68.112C58.1029 68.816 58.0709 69.472 58.0069 70.08C58.6149 70.048 59.2069 70.016 59.7829 69.984C60.3909 69.952 60.9989 69.92 61.6069 69.888V72H52.4389V70.416C53.4309 70.384 54.1509 70.176 54.5989 69.792C55.0789 69.376 55.3829 68.832 55.5109 68.16C55.6389 67.488 55.7189 66.768 55.7509 66L56.6629 44.112C56.6949 43.472 56.7109 42.832 56.7109 42.192C56.7429 41.552 56.7749 40.928 56.8069 40.32C56.2309 40.352 55.6549 40.384 55.0789 40.416C54.5029 40.416 53.9269 40.432 53.3509 40.464V38.4H60.6949L68.9509 57.456C69.3669 58.416 69.7669 59.376 70.1509 60.336C70.5669 61.296 70.9829 62.256 71.3989 63.216C71.8469 64.176 72.2789 65.152 72.6949 66.144H72.7909C73.1429 65.28 73.5589 64.256 74.0389 63.072C74.5189 61.856 74.9189 60.816 75.2389 59.952C76.6469 56.432 78.1029 52.912 79.6069 49.392C81.1429 45.84 82.6469 42.176 84.1189 38.4H91.2229V39.984C90.4229 39.952 89.7669 40.112 89.2549 40.464C88.7429 40.784 88.3749 41.328 88.1509 42.096C87.9269 42.864 87.8469 43.904 87.9109 45.216L89.1589 67.056C89.2229 67.6 89.2549 68.128 89.2549 68.64C89.2549 69.152 89.2549 69.616 89.2549 70.032C89.8309 70 90.4069 69.984 90.9829 69.984C91.5909 69.952 92.1829 69.92 92.7589 69.888V72H82.0069V70.416C82.9989 70.384 83.7349 70.144 84.2149 69.696C84.6949 69.248 84.9829 68.608 85.0789 67.776C85.2069 66.944 85.2389 65.92 85.1749 64.704L84.2149 48.864C84.1829 48.352 84.1509 47.84 84.1189 47.328C84.0869 46.816 84.0549 46.304 84.0229 45.792C83.9909 45.28 83.9589 44.768 83.9269 44.256C83.8309 44.48 83.7189 44.72 83.5909 44.976C83.4949 45.232 83.3989 45.504 83.3029 45.792L72.5029 72.48H71.0629Z" fill="black"/>
<rect x="0.5" y="0.5" width="109" height="109" rx="10.5" stroke="black"/>
</svg>
