<svg width="482" height="110" viewBox="0 0 482 110" fill="none" xmlns="http://www.w3.org/2000/svg">
<rect x="5.5" y="5.5" width="99" height="99" rx="6.5" stroke="black"/>
<path d="M120.856 36V35.208C121.336 35.208 121.704 35.08 121.96 34.824C122.216 34.568 122.424 34.216 122.584 33.768C122.76 33.32 122.96 32.8 123.184 32.208L128.128 18.744H128.704L134.056 32.4C134.184 32.736 134.328 33.168 134.488 33.696C134.648 34.224 134.712 34.672 134.68 35.04C134.952 35.024 135.224 35.008 135.496 34.992C135.768 34.976 136.04 34.96 136.312 34.944V36H130.816V35.208C131.424 35.192 131.824 35.056 132.016 34.8C132.208 34.544 132.28 34.24 132.232 33.888C132.184 33.536 132.104 33.216 131.992 32.928L131.152 30.672L124.912 30.816L124.072 33.384C123.96 33.768 123.856 34.072 123.76 34.296C123.68 34.52 123.584 34.768 123.472 35.04C123.792 35.024 124.104 35.008 124.408 34.992C124.728 34.976 125.04 34.96 125.344 34.944V36H120.856ZM125.272 29.784H130.816L129.112 25.2C128.936 24.704 128.752 24.216 128.56 23.736C128.384 23.24 128.208 22.744 128.032 22.248H127.984C127.824 22.696 127.656 23.144 127.48 23.592C127.32 24.04 127.152 24.496 126.976 24.96L125.272 29.784ZM155.271 36.384L145.695 23.52C145.551 23.328 145.407 23.144 145.263 22.968C145.135 22.776 144.999 22.584 144.855 22.392H144.831L144.903 32.664C144.903 33.064 144.903 33.464 144.903 33.864C144.903 34.264 144.887 34.656 144.855 35.04C145.143 35.024 145.431 35.008 145.719 34.992C146.007 34.976 146.295 34.96 146.583 34.944V36H142.191V35.208C142.687 35.208 143.039 35.104 143.247 34.896C143.471 34.672 143.615 34.416 143.679 34.128C143.743 33.824 143.775 33.552 143.775 33.312L143.799 21.768C143.799 21.496 143.799 21.224 143.799 20.952C143.799 20.68 143.799 20.416 143.799 20.16C143.543 20.176 143.279 20.192 143.007 20.208C142.735 20.224 142.463 20.24 142.191 20.256V19.2H145.047L154.047 31.248C154.255 31.52 154.455 31.792 154.647 32.064C154.855 32.336 155.063 32.608 155.271 32.88H155.295L155.319 21.888C155.319 21.568 155.327 21.264 155.343 20.976C155.359 20.672 155.375 20.4 155.391 20.16C155.103 20.176 154.815 20.192 154.527 20.208C154.239 20.224 153.951 20.24 153.663 20.256V19.2H158.079V19.992C157.487 20.008 157.079 20.144 156.855 20.4C156.631 20.656 156.511 21 156.495 21.432C156.479 21.864 156.471 22.368 156.471 22.944L156.423 36.384H155.271ZM178.353 36.384L168.777 23.52C168.633 23.328 168.489 23.144 168.345 22.968C168.217 22.776 168.081 22.584 167.937 22.392H167.913L167.985 32.664C167.985 33.064 167.985 33.464 167.985 33.864C167.985 34.264 167.969 34.656 167.937 35.04C168.225 35.024 168.513 35.008 168.801 34.992C169.089 34.976 169.377 34.96 169.665 34.944V36H165.273V35.208C165.769 35.208 166.121 35.104 166.329 34.896C166.553 34.672 166.697 34.416 166.761 34.128C166.825 33.824 166.857 33.552 166.857 33.312L166.881 21.768C166.881 21.496 166.881 21.224 166.881 20.952C166.881 20.68 166.881 20.416 166.881 20.16C166.625 20.176 166.361 20.192 166.089 20.208C165.817 20.224 165.545 20.24 165.273 20.256V19.2H168.129L177.129 31.248C177.337 31.52 177.537 31.792 177.729 32.064C177.937 32.336 178.145 32.608 178.353 32.88H178.377L178.401 21.888C178.401 21.568 178.409 21.264 178.425 20.976C178.441 20.672 178.457 20.4 178.473 20.16C178.185 20.176 177.897 20.192 177.609 20.208C177.321 20.224 177.033 20.24 176.745 20.256V19.2H181.161V19.992C180.569 20.008 180.161 20.144 179.937 20.4C179.713 20.656 179.593 21 179.577 21.432C179.561 21.864 179.553 22.368 179.553 22.944L179.505 36.384H178.353ZM186.842 36V35.208C187.322 35.208 187.69 35.08 187.946 34.824C188.202 34.568 188.41 34.216 188.57 33.768C188.746 33.32 188.946 32.8 189.17 32.208L194.114 18.744H194.69L200.042 32.4C200.17 32.736 200.314 33.168 200.474 33.696C200.634 34.224 200.698 34.672 200.666 35.04C200.938 35.024 201.21 35.008 201.482 34.992C201.754 34.976 202.026 34.96 202.298 34.944V36H196.802V35.208C197.41 35.192 197.81 35.056 198.002 34.8C198.194 34.544 198.266 34.24 198.218 33.888C198.17 33.536 198.09 33.216 197.978 32.928L197.138 30.672L190.898 30.816L190.058 33.384C189.946 33.768 189.842 34.072 189.746 34.296C189.666 34.52 189.57 34.768 189.458 35.04C189.778 35.024 190.09 35.008 190.394 34.992C190.714 34.976 191.026 34.96 191.33 34.944V36H186.842ZM191.258 29.784H196.802L195.098 25.2C194.922 24.704 194.738 24.216 194.546 23.736C194.37 23.24 194.194 22.744 194.018 22.248H193.97C193.81 22.696 193.642 23.144 193.466 23.592C193.306 24.04 193.138 24.496 192.962 24.96L191.258 29.784ZM217.177 36.24C216.473 34.64 215.761 33.048 215.041 31.464C214.321 29.864 213.617 28.248 212.929 26.616C212.705 26.104 212.481 25.592 212.257 25.08C212.049 24.552 211.841 24.024 211.633 23.496C211.441 22.968 211.241 22.44 211.033 21.912C211.033 22.088 211.025 22.264 211.009 22.44C211.009 22.616 211.009 22.792 211.009 22.968C210.993 23.544 210.969 24.24 210.937 25.056C210.921 25.856 210.897 26.72 210.865 27.648C210.833 28.56 210.809 29.48 210.793 30.408C210.777 31.32 210.761 32.184 210.745 33C210.729 33.352 210.713 33.704 210.697 34.056C210.697 34.408 210.681 34.736 210.649 35.04C210.953 35.024 211.249 35.008 211.537 34.992C211.841 34.976 212.145 34.96 212.449 34.944V36H207.865V35.208C208.361 35.192 208.721 35.088 208.945 34.896C209.185 34.688 209.337 34.416 209.401 34.08C209.465 33.744 209.505 33.384 209.521 33L209.977 22.056C209.993 21.736 210.001 21.416 210.001 21.096C210.017 20.776 210.033 20.464 210.049 20.16C209.761 20.176 209.473 20.192 209.185 20.208C208.897 20.208 208.609 20.216 208.321 20.232V19.2H211.993L216.121 28.728C216.329 29.208 216.529 29.688 216.721 30.168C216.929 30.648 217.137 31.128 217.345 31.608C217.569 32.088 217.785 32.576 217.993 33.072H218.041C218.217 32.64 218.425 32.128 218.665 31.536C218.905 30.928 219.105 30.408 219.265 29.976C219.969 28.216 220.697 26.456 221.449 24.696C222.217 22.92 222.969 21.088 223.705 19.2H227.257V19.992C226.857 19.976 226.529 20.056 226.273 20.232C226.017 20.392 225.833 20.664 225.721 21.048C225.609 21.432 225.569 21.952 225.601 22.608L226.225 33.528C226.257 33.8 226.273 34.064 226.273 34.32C226.273 34.576 226.273 34.808 226.273 35.016C226.561 35 226.849 34.992 227.137 34.992C227.441 34.976 227.737 34.96 228.025 34.944V36H222.649V35.208C223.145 35.192 223.513 35.072 223.753 34.848C223.993 34.624 224.137 34.304 224.185 33.888C224.249 33.472 224.265 32.96 224.233 32.352L223.753 24.432C223.737 24.176 223.721 23.92 223.705 23.664C223.689 23.408 223.673 23.152 223.657 22.896C223.641 22.64 223.625 22.384 223.609 22.128C223.561 22.24 223.505 22.36 223.441 22.488C223.393 22.616 223.345 22.752 223.297 22.896L217.897 36.24H217.177ZM239.761 19.992C239.233 19.992 238.849 20.104 238.609 20.328C238.385 20.552 238.249 20.816 238.201 21.12C238.153 21.408 238.129 21.664 238.129 21.888V27.936C238.129 28.832 238.185 29.704 238.297 30.552C238.425 31.384 238.657 32.136 238.993 32.808C239.329 33.48 239.825 34.016 240.481 34.416C241.153 34.816 242.025 35.016 243.097 35.016C244.249 35.016 245.185 34.744 245.905 34.2C246.641 33.656 247.177 32.904 247.513 31.944C247.865 30.984 248.049 29.88 248.065 28.632L248.137 21.888C248.137 21.568 248.145 21.264 248.161 20.976C248.177 20.672 248.193 20.4 248.209 20.16C247.921 20.176 247.633 20.192 247.345 20.208C247.073 20.224 246.793 20.24 246.505 20.256V19.2H250.969V19.992C250.361 20.008 249.945 20.144 249.721 20.4C249.497 20.656 249.369 21 249.337 21.432C249.321 21.864 249.305 22.368 249.289 22.944L249.241 28.512C249.241 29.552 249.129 30.544 248.905 31.488C248.681 32.432 248.313 33.272 247.801 34.008C247.305 34.744 246.641 35.328 245.809 35.76C244.993 36.176 243.985 36.384 242.785 36.384C241.505 36.384 240.425 36.216 239.545 35.88C238.681 35.544 237.985 35.024 237.457 34.32C236.945 33.616 236.577 32.728 236.353 31.656C236.129 30.584 236.017 29.304 236.017 27.816V22.944C236.017 22.528 236.025 22.04 236.041 21.48C236.073 20.904 236.097 20.464 236.113 20.16C235.825 20.176 235.537 20.192 235.249 20.208C234.961 20.208 234.673 20.216 234.385 20.232V19.2H239.761V19.992ZM257.808 36V35.208C258.416 35.176 258.832 35.04 259.056 34.8C259.28 34.544 259.4 34.2 259.416 33.768C259.448 33.32 259.464 32.816 259.464 32.256V21.888C259.464 21.568 259.472 21.264 259.488 20.976C259.504 20.672 259.52 20.4 259.536 20.16C259.248 20.176 258.96 20.192 258.672 20.208C258.384 20.224 258.096 20.24 257.808 20.256V19.2H263.208V19.992C262.616 20.008 262.2 20.144 261.96 20.4C261.736 20.656 261.608 21 261.576 21.432C261.56 21.864 261.552 22.368 261.552 22.944V26.88H263.352L266.352 22.152C266.56 21.832 266.816 21.48 267.12 21.096C267.424 20.712 267.736 20.392 268.056 20.136C267.816 20.152 267.568 20.16 267.312 20.16C267.072 20.16 266.832 20.168 266.592 20.184V19.2H271.752V19.992C271.08 20.04 270.48 20.152 269.952 20.328C269.424 20.504 268.92 20.816 268.44 21.264C267.96 21.696 267.448 22.352 266.904 23.232L264.552 26.976C265.016 27.248 265.392 27.568 265.68 27.936C265.968 28.288 266.256 28.648 266.544 29.016L269.232 32.592C269.84 33.392 270.336 33.984 270.72 34.368C271.12 34.736 271.472 34.968 271.776 35.064C272.096 35.16 272.424 35.208 272.76 35.208V36H269.832C269.672 36 269.456 35.888 269.184 35.664C268.928 35.44 268.648 35.152 268.344 34.8C268.04 34.432 267.728 34.048 267.408 33.648L264.528 29.76C264.224 29.36 263.92 28.984 263.616 28.632C263.312 28.264 263.016 27.992 262.728 27.816L261.552 27.84V33.144C261.552 33.576 261.544 33.952 261.528 34.272C261.528 34.576 261.512 34.832 261.48 35.04C261.768 35.024 262.056 35.008 262.344 34.992C262.632 34.976 262.92 34.96 263.208 34.944V36H257.808ZM278.99 36V35.208C279.598 35.176 280.014 35.04 280.238 34.8C280.462 34.544 280.582 34.2 280.598 33.768C280.63 33.32 280.646 32.816 280.646 32.256V21.888C280.646 21.568 280.654 21.264 280.67 20.976C280.686 20.672 280.702 20.4 280.718 20.16C280.43 20.176 280.142 20.192 279.854 20.208C279.566 20.224 279.278 20.24 278.99 20.256V19.2H284.39V19.992C283.798 20.008 283.382 20.144 283.142 20.4C282.918 20.656 282.79 21 282.758 21.432C282.742 21.864 282.734 22.368 282.734 22.944V26.928H291.326V21.888C291.326 21.568 291.334 21.264 291.35 20.976C291.366 20.672 291.382 20.4 291.398 20.16C291.11 20.176 290.822 20.192 290.534 20.208C290.246 20.224 289.958 20.24 289.67 20.256V19.2H295.07V19.992C294.478 20.008 294.062 20.144 293.822 20.4C293.598 20.656 293.47 21 293.438 21.432C293.422 21.864 293.414 22.368 293.414 22.944V33.144C293.414 33.576 293.406 33.952 293.39 34.272C293.39 34.576 293.374 34.832 293.342 35.04C293.63 35.024 293.918 35.008 294.206 34.992C294.494 34.976 294.782 34.96 295.07 34.944V36H289.67V35.208C290.278 35.176 290.694 35.04 290.918 34.8C291.142 34.544 291.262 34.2 291.278 33.768C291.31 33.32 291.326 32.816 291.326 32.256V27.888L282.734 27.984V33.144C282.734 33.576 282.726 33.952 282.71 34.272C282.71 34.576 282.694 34.832 282.662 35.04C282.95 35.024 283.238 35.008 283.526 34.992C283.814 34.976 284.102 34.96 284.39 34.944V36H278.99ZM301.053 36V35.208C301.533 35.208 301.901 35.08 302.157 34.824C302.413 34.568 302.621 34.216 302.781 33.768C302.957 33.32 303.157 32.8 303.381 32.208L308.325 18.744H308.901L314.253 32.4C314.381 32.736 314.525 33.168 314.685 33.696C314.845 34.224 314.909 34.672 314.877 35.04C315.149 35.024 315.421 35.008 315.693 34.992C315.965 34.976 316.237 34.96 316.509 34.944V36H311.013V35.208C311.621 35.192 312.021 35.056 312.213 34.8C312.405 34.544 312.477 34.24 312.429 33.888C312.381 33.536 312.301 33.216 312.189 32.928L311.349 30.672L305.109 30.816L304.269 33.384C304.157 33.768 304.053 34.072 303.957 34.296C303.877 34.52 303.781 34.768 303.669 35.04C303.989 35.024 304.301 35.008 304.605 34.992C304.925 34.976 305.237 34.96 305.541 34.944V36H301.053ZM305.469 29.784H311.013L309.309 25.2C309.133 24.704 308.949 24.216 308.757 23.736C308.581 23.24 308.405 22.744 308.229 22.248H308.181C308.021 22.696 307.853 23.144 307.677 23.592C307.517 24.04 307.349 24.496 307.173 24.96L305.469 29.784ZM331.388 36.24C330.684 34.64 329.972 33.048 329.252 31.464C328.532 29.864 327.828 28.248 327.14 26.616C326.916 26.104 326.692 25.592 326.468 25.08C326.26 24.552 326.052 24.024 325.844 23.496C325.652 22.968 325.452 22.44 325.244 21.912C325.244 22.088 325.236 22.264 325.22 22.44C325.22 22.616 325.22 22.792 325.22 22.968C325.204 23.544 325.18 24.24 325.148 25.056C325.132 25.856 325.108 26.72 325.076 27.648C325.044 28.56 325.02 29.48 325.004 30.408C324.988 31.32 324.972 32.184 324.956 33C324.94 33.352 324.924 33.704 324.908 34.056C324.908 34.408 324.892 34.736 324.86 35.04C325.164 35.024 325.46 35.008 325.748 34.992C326.052 34.976 326.356 34.96 326.66 34.944V36H322.076V35.208C322.572 35.192 322.932 35.088 323.156 34.896C323.396 34.688 323.548 34.416 323.612 34.08C323.676 33.744 323.716 33.384 323.732 33L324.188 22.056C324.204 21.736 324.212 21.416 324.212 21.096C324.228 20.776 324.244 20.464 324.26 20.16C323.972 20.176 323.684 20.192 323.396 20.208C323.108 20.208 322.82 20.216 322.532 20.232V19.2H326.204L330.332 28.728C330.54 29.208 330.74 29.688 330.932 30.168C331.14 30.648 331.348 31.128 331.556 31.608C331.78 32.088 331.996 32.576 332.204 33.072H332.252C332.428 32.64 332.636 32.128 332.876 31.536C333.116 30.928 333.316 30.408 333.476 29.976C334.18 28.216 334.908 26.456 335.66 24.696C336.428 22.92 337.18 21.088 337.916 19.2H341.468V19.992C341.068 19.976 340.74 20.056 340.484 20.232C340.228 20.392 340.044 20.664 339.932 21.048C339.82 21.432 339.78 21.952 339.812 22.608L340.436 33.528C340.468 33.8 340.484 34.064 340.484 34.32C340.484 34.576 340.484 34.808 340.484 35.016C340.772 35 341.06 34.992 341.348 34.992C341.652 34.976 341.948 34.96 342.236 34.944V36H336.86V35.208C337.356 35.192 337.724 35.072 337.964 34.848C338.204 34.624 338.348 34.304 338.396 33.888C338.46 33.472 338.476 32.96 338.444 32.352L337.964 24.432C337.948 24.176 337.932 23.92 337.916 23.664C337.9 23.408 337.884 23.152 337.868 22.896C337.852 22.64 337.836 22.384 337.82 22.128C337.772 22.24 337.716 22.36 337.652 22.488C337.604 22.616 337.556 22.752 337.508 22.896L332.108 36.24H331.388ZM357.524 29.784C357.524 29.08 357.428 28.576 357.236 28.272C357.044 27.968 356.74 27.784 356.324 27.72C355.908 27.656 355.356 27.64 354.668 27.672L352.916 27.744V33.24C352.916 33.672 352.908 34.04 352.892 34.344C352.892 34.648 352.876 34.904 352.844 35.112L357.428 35.04C358.132 35.024 358.74 34.912 359.252 34.704C359.764 34.48 360.164 34.096 360.452 33.552C360.74 33.008 360.884 32.264 360.884 31.32H361.7L361.556 36H349.172V35.208C349.78 35.176 350.196 35.04 350.42 34.8C350.644 34.544 350.764 34.2 350.78 33.768C350.812 33.32 350.828 32.816 350.828 32.256V21.888C350.828 21.568 350.836 21.264 350.852 20.976C350.868 20.672 350.884 20.4 350.9 20.16C350.612 20.176 350.324 20.192 350.036 20.208C349.748 20.224 349.46 20.24 349.172 20.256V19.2H360.716L360.836 23.4H360.044C360.044 22.456 359.9 21.744 359.612 21.264C359.324 20.768 358.932 20.44 358.436 20.28C357.956 20.104 357.412 20.024 356.804 20.04L354.74 20.088C354.148 20.104 353.724 20.216 353.468 20.424C353.212 20.632 353.052 20.944 352.988 21.36C352.94 21.76 352.916 22.288 352.916 22.944V26.784L357.428 26.808L357.26 24.744H358.316V29.784H357.524ZM381.477 24.264C381.461 23.32 381.365 22.536 381.189 21.912C381.013 21.288 380.701 20.824 380.253 20.52C379.821 20.2 379.189 20.048 378.357 20.064H376.317L376.293 33.144C376.293 33.576 376.285 33.952 376.269 34.272C376.269 34.576 376.253 34.832 376.221 35.04C376.557 35.024 376.885 35.008 377.205 34.992C377.541 34.976 377.877 34.96 378.213 34.944V36H372.573V35.208C373.181 35.176 373.589 35.032 373.797 34.776C374.021 34.52 374.141 34.176 374.157 33.744C374.189 33.296 374.205 32.8 374.205 32.256L374.229 20.088L371.757 20.112C370.749 20.112 370.037 20.448 369.621 21.12C369.205 21.792 368.997 22.84 368.997 24.264H368.109L368.253 19.2H382.245L382.389 24.264H381.477ZM398.485 24.288C398.437 23.52 398.253 22.792 397.933 22.104C397.613 21.416 397.149 20.856 396.541 20.424C395.933 19.992 395.157 19.776 394.213 19.776C393.221 19.776 392.461 20.056 391.933 20.616C391.405 21.176 391.141 21.832 391.141 22.584C391.141 23.256 391.333 23.824 391.717 24.288C392.101 24.736 392.597 25.136 393.205 25.488C393.829 25.824 394.485 26.152 395.173 26.472C395.781 26.744 396.389 27.04 396.997 27.36C397.605 27.664 398.157 28.016 398.653 28.416C399.149 28.816 399.541 29.296 399.829 29.856C400.133 30.4 400.285 31.056 400.285 31.824C400.285 32.704 400.061 33.488 399.613 34.176C399.181 34.864 398.549 35.408 397.717 35.808C396.885 36.192 395.869 36.384 394.669 36.384C393.949 36.384 393.205 36.28 392.437 36.072C391.669 35.864 390.989 35.56 390.397 35.16L390.517 36.192H389.269L389.125 31.08H390.061C390.141 32.488 390.629 33.56 391.525 34.296C392.421 35.016 393.501 35.376 394.765 35.376C395.389 35.376 395.965 35.264 396.493 35.04C397.021 34.8 397.437 34.456 397.741 34.008C398.061 33.56 398.221 33.016 398.221 32.376C398.221 31.656 398.029 31.056 397.645 30.576C397.261 30.096 396.765 29.68 396.157 29.328C395.549 28.976 394.901 28.64 394.213 28.32C393.605 28.048 393.005 27.76 392.413 27.456C391.821 27.152 391.277 26.808 390.781 26.424C390.301 26.024 389.909 25.552 389.605 25.008C389.317 24.464 389.173 23.808 389.173 23.04C389.173 22.624 389.245 22.176 389.389 21.696C389.533 21.216 389.781 20.76 390.133 20.328C390.501 19.88 390.997 19.52 391.621 19.248C392.261 18.96 393.069 18.816 394.045 18.816C394.653 18.816 395.333 18.904 396.085 19.08C396.853 19.24 397.565 19.56 398.221 20.04L398.125 19.008H399.349V24.288H398.485ZM407.47 36V35.208C408.078 35.176 408.494 35.04 408.718 34.8C408.942 34.544 409.062 34.2 409.078 33.768C409.11 33.32 409.126 32.816 409.126 32.256V21.888C409.126 21.568 409.134 21.264 409.15 20.976C409.166 20.672 409.182 20.4 409.198 20.16C408.91 20.176 408.622 20.192 408.334 20.208C408.046 20.224 407.758 20.24 407.47 20.256V19.2H412.87V19.992C412.278 20.008 411.862 20.144 411.622 20.4C411.398 20.656 411.27 21 411.238 21.432C411.222 21.864 411.214 22.368 411.214 22.944V26.928H419.806V21.888C419.806 21.568 419.814 21.264 419.83 20.976C419.846 20.672 419.862 20.4 419.878 20.16C419.59 20.176 419.302 20.192 419.014 20.208C418.726 20.224 418.438 20.24 418.15 20.256V19.2H423.55V19.992C422.958 20.008 422.542 20.144 422.302 20.4C422.078 20.656 421.95 21 421.918 21.432C421.902 21.864 421.894 22.368 421.894 22.944V33.144C421.894 33.576 421.886 33.952 421.87 34.272C421.87 34.576 421.854 34.832 421.822 35.04C422.11 35.024 422.398 35.008 422.686 34.992C422.974 34.976 423.262 34.96 423.55 34.944V36H418.15V35.208C418.758 35.176 419.174 35.04 419.398 34.8C419.622 34.544 419.742 34.2 419.758 33.768C419.79 33.32 419.806 32.816 419.806 32.256V27.888L411.214 27.984V33.144C411.214 33.576 411.206 33.952 411.19 34.272C411.19 34.576 411.174 34.832 411.142 35.04C411.43 35.024 411.718 35.008 412.006 34.992C412.294 34.976 412.582 34.96 412.87 34.944V36H407.47ZM436.397 19.992C435.805 20.008 435.389 20.144 435.149 20.4C434.925 20.656 434.797 21 434.765 21.432C434.749 21.864 434.741 22.368 434.741 22.944V33.144C434.741 33.576 434.733 33.952 434.717 34.272C434.717 34.576 434.701 34.832 434.669 35.04C434.957 35.024 435.245 35.008 435.533 34.992C435.821 34.976 436.109 34.96 436.397 34.944V36H430.997V35.208C431.605 35.176 432.021 35.04 432.245 34.8C432.469 34.544 432.589 34.2 432.605 33.768C432.637 33.32 432.653 32.816 432.653 32.256V21.888C432.653 21.568 432.661 21.264 432.677 20.976C432.693 20.672 432.709 20.4 432.725 20.16C432.437 20.176 432.149 20.192 431.861 20.208C431.573 20.224 431.285 20.24 430.997 20.256V19.2H436.397V19.992ZM456.964 36.384L447.388 23.52C447.244 23.328 447.1 23.144 446.956 22.968C446.828 22.776 446.692 22.584 446.548 22.392H446.524L446.596 32.664C446.596 33.064 446.596 33.464 446.596 33.864C446.596 34.264 446.58 34.656 446.548 35.04C446.836 35.024 447.124 35.008 447.412 34.992C447.7 34.976 447.988 34.96 448.276 34.944V36H443.884V35.208C444.38 35.208 444.732 35.104 444.94 34.896C445.164 34.672 445.308 34.416 445.372 34.128C445.436 33.824 445.468 33.552 445.468 33.312L445.492 21.768C445.492 21.496 445.492 21.224 445.492 20.952C445.492 20.68 445.492 20.416 445.492 20.16C445.236 20.176 444.972 20.192 444.7 20.208C444.428 20.224 444.156 20.24 443.884 20.256V19.2H446.74L455.74 31.248C455.948 31.52 456.148 31.792 456.34 32.064C456.548 32.336 456.756 32.608 456.964 32.88H456.988L457.012 21.888C457.012 21.568 457.02 21.264 457.036 20.976C457.052 20.672 457.068 20.4 457.084 20.16C456.796 20.176 456.508 20.192 456.22 20.208C455.932 20.224 455.644 20.24 455.356 20.256V19.2H459.772V19.992C459.18 20.008 458.772 20.144 458.548 20.4C458.324 20.656 458.204 21 458.188 21.432C458.172 21.864 458.164 22.368 458.164 22.944L458.116 36.384H456.964ZM465.453 36V35.208C465.933 35.208 466.301 35.08 466.557 34.824C466.813 34.568 467.021 34.216 467.181 33.768C467.357 33.32 467.557 32.8 467.781 32.208L472.725 18.744H473.301L478.653 32.4C478.781 32.736 478.925 33.168 479.085 33.696C479.245 34.224 479.309 34.672 479.277 35.04C479.549 35.024 479.821 35.008 480.093 34.992C480.365 34.976 480.637 34.96 480.909 34.944V36H475.413V35.208C476.021 35.192 476.421 35.056 476.613 34.8C476.805 34.544 476.877 34.24 476.829 33.888C476.781 33.536 476.701 33.216 476.589 32.928L475.749 30.672L469.509 30.816L468.669 33.384C468.557 33.768 468.453 34.072 468.357 34.296C468.277 34.52 468.181 34.768 468.069 35.04C468.389 35.024 468.701 35.008 469.005 34.992C469.325 34.976 469.637 34.96 469.941 34.944V36H465.453ZM469.869 29.784H475.413L473.709 25.2C473.533 24.704 473.349 24.216 473.157 23.736C472.981 23.24 472.805 22.744 472.629 22.248H472.581C472.421 22.696 472.253 23.144 472.077 23.592C471.917 24.04 471.749 24.496 471.573 24.96L469.869 29.784Z" fill="black"/>
<path d="M125.72 79.992C125.128 80.008 124.712 80.144 124.472 80.4C124.248 80.656 124.12 81 124.088 81.432C124.072 81.864 124.064 82.368 124.064 82.944V93.144C124.064 93.576 124.056 93.952 124.04 94.272C124.04 94.576 124.024 94.832 123.992 95.04C124.28 95.024 124.568 95.008 124.856 94.992C125.144 94.976 125.432 94.96 125.72 94.944V96H120.32V95.208C120.928 95.176 121.344 95.04 121.568 94.8C121.792 94.544 121.912 94.2 121.928 93.768C121.96 93.32 121.976 92.816 121.976 92.256V81.888C121.976 81.568 121.984 81.264 122 80.976C122.016 80.672 122.032 80.4 122.048 80.16C121.76 80.176 121.472 80.192 121.184 80.208C120.896 80.224 120.608 80.24 120.32 80.256V79.2H125.72V79.992ZM144.607 96.384L135.031 83.52C134.887 83.328 134.743 83.144 134.599 82.968C134.471 82.776 134.335 82.584 134.191 82.392H134.167L134.239 92.664C134.239 93.064 134.239 93.464 134.239 93.864C134.239 94.264 134.223 94.656 134.191 95.04C134.479 95.024 134.767 95.008 135.055 94.992C135.343 94.976 135.631 94.96 135.919 94.944V96H131.527V95.208C132.023 95.208 132.375 95.104 132.583 94.896C132.807 94.672 132.951 94.416 133.015 94.128C133.079 93.824 133.111 93.552 133.111 93.312L133.135 81.768C133.135 81.496 133.135 81.224 133.135 80.952C133.135 80.68 133.135 80.416 133.135 80.16C132.879 80.176 132.615 80.192 132.343 80.208C132.071 80.224 131.799 80.24 131.527 80.256V79.2H134.383L143.383 91.248C143.591 91.52 143.791 91.792 143.983 92.064C144.191 92.336 144.399 92.608 144.607 92.88H144.631L144.655 81.888C144.655 81.568 144.663 81.264 144.679 80.976C144.695 80.672 144.711 80.4 144.727 80.16C144.439 80.176 144.151 80.192 143.863 80.208C143.575 80.224 143.287 80.24 142.999 80.256V79.2H147.415V79.992C146.823 80.008 146.415 80.144 146.191 80.4C145.967 80.656 145.847 81 145.831 81.432C145.815 81.864 145.807 82.368 145.807 82.944L145.759 96.384H144.607ZM165.456 84.264C165.44 83.32 165.344 82.536 165.168 81.912C164.992 81.288 164.68 80.824 164.232 80.52C163.8 80.2 163.168 80.048 162.336 80.064H160.296L160.272 93.144C160.272 93.576 160.264 93.952 160.248 94.272C160.248 94.576 160.232 94.832 160.2 95.04C160.536 95.024 160.864 95.008 161.184 94.992C161.52 94.976 161.856 94.96 162.192 94.944V96H156.552V95.208C157.16 95.176 157.568 95.032 157.776 94.776C158 94.52 158.12 94.176 158.136 93.744C158.168 93.296 158.184 92.8 158.184 92.256L158.208 80.088L155.736 80.112C154.728 80.112 154.016 80.448 153.6 81.12C153.184 81.792 152.976 82.84 152.976 84.264H152.088L152.232 79.2H166.224L166.368 84.264H165.456ZM179.704 89.784C179.704 89.08 179.608 88.576 179.416 88.272C179.224 87.968 178.92 87.784 178.504 87.72C178.088 87.656 177.536 87.64 176.848 87.672L175.096 87.744V93.24C175.096 93.672 175.088 94.04 175.072 94.344C175.072 94.648 175.056 94.904 175.024 95.112L179.608 95.04C180.312 95.024 180.92 94.912 181.432 94.704C181.944 94.48 182.344 94.096 182.632 93.552C182.92 93.008 183.064 92.264 183.064 91.32H183.88L183.736 96H171.352V95.208C171.96 95.176 172.376 95.04 172.6 94.8C172.824 94.544 172.944 94.2 172.96 93.768C172.992 93.32 173.008 92.816 173.008 92.256V81.888C173.008 81.568 173.016 81.264 173.032 80.976C173.048 80.672 173.064 80.4 173.08 80.16C172.792 80.176 172.504 80.192 172.216 80.208C171.928 80.224 171.64 80.24 171.352 80.256V79.2H182.896L183.016 83.4H182.224C182.224 82.456 182.08 81.744 181.792 81.264C181.504 80.768 181.112 80.44 180.616 80.28C180.136 80.104 179.592 80.024 178.984 80.04L176.92 80.088C176.328 80.104 175.904 80.216 175.648 80.424C175.392 80.632 175.232 80.944 175.168 81.36C175.12 81.76 175.096 82.288 175.096 82.944V86.784L179.608 86.808L179.44 84.744H180.496V89.784H179.704ZM189.402 96V95.208C190.01 95.176 190.426 95.04 190.65 94.8C190.874 94.544 190.994 94.2 191.01 93.768C191.042 93.32 191.058 92.816 191.058 92.256V81.888C191.058 81.568 191.066 81.264 191.082 80.976C191.098 80.672 191.114 80.4 191.13 80.16C190.842 80.176 190.554 80.192 190.266 80.208C189.978 80.224 189.69 80.24 189.402 80.256V79.2C190.298 79.184 191.202 79.168 192.114 79.152C193.042 79.136 193.97 79.144 194.898 79.176C196.45 79.192 197.698 79.376 198.642 79.728C199.602 80.064 200.306 80.552 200.754 81.192C201.202 81.816 201.426 82.576 201.426 83.472C201.442 84.096 201.322 84.736 201.066 85.392C200.826 86.032 200.378 86.608 199.722 87.12C199.082 87.632 198.154 88.016 196.938 88.272C197.258 88.496 197.538 88.784 197.778 89.136C198.018 89.488 198.29 89.896 198.594 90.36L200.226 92.928C200.498 93.36 200.762 93.752 201.018 94.104C201.274 94.44 201.57 94.712 201.906 94.92C202.242 95.112 202.658 95.208 203.154 95.208V96H200.13C199.666 95.584 199.274 95.168 198.954 94.752C198.65 94.336 198.33 93.864 197.994 93.336L196.386 90.768C196.178 90.432 195.938 90.048 195.666 89.616C195.41 89.168 195.114 88.792 194.778 88.488C194.522 88.504 194.25 88.512 193.962 88.512C193.69 88.512 193.418 88.504 193.146 88.488V93.144C193.146 93.576 193.138 93.952 193.122 94.272C193.122 94.576 193.106 94.832 193.074 95.04C193.266 95.024 193.458 95.016 193.65 95.016C193.842 95 194.034 94.984 194.226 94.968C194.418 94.952 194.61 94.944 194.802 94.944V96H189.402ZM194.634 87.6C195.514 87.568 196.282 87.424 196.938 87.168C197.61 86.912 198.138 86.504 198.522 85.944C198.906 85.384 199.098 84.648 199.098 83.736C199.098 83.128 199.01 82.6 198.834 82.152C198.674 81.688 198.418 81.304 198.066 81C197.714 80.696 197.266 80.472 196.722 80.328C196.178 80.168 195.538 80.088 194.802 80.088C194.21 80.088 193.794 80.208 193.554 80.448C193.33 80.688 193.202 81.024 193.17 81.456C193.154 81.872 193.146 82.368 193.146 82.944V87.552C193.402 87.568 193.642 87.584 193.866 87.6C194.106 87.616 194.362 87.616 194.634 87.6ZM212.992 79.992C212.4 80.008 211.984 80.144 211.744 80.4C211.52 80.656 211.392 81 211.36 81.432C211.344 81.864 211.336 82.368 211.336 82.944V93.144C211.336 93.576 211.328 93.952 211.312 94.272C211.312 94.576 211.296 94.832 211.264 95.04C211.552 95.024 211.84 95.008 212.128 94.992C212.416 94.976 212.704 94.96 212.992 94.944V96H207.592V95.208C208.2 95.176 208.616 95.04 208.84 94.8C209.064 94.544 209.184 94.2 209.2 93.768C209.232 93.32 209.248 92.816 209.248 92.256V81.888C209.248 81.568 209.256 81.264 209.272 80.976C209.288 80.672 209.304 80.4 209.32 80.16C209.032 80.176 208.744 80.192 208.456 80.208C208.168 80.224 207.88 80.24 207.592 80.256V79.2H212.992V79.992ZM226.868 96.384C225.348 96.384 224.044 96.128 222.956 95.616C221.868 95.104 220.98 94.424 220.292 93.576C219.62 92.712 219.124 91.76 218.804 90.72C218.484 89.68 218.324 88.64 218.324 87.6C218.324 86.592 218.492 85.576 218.828 84.552C219.164 83.512 219.676 82.56 220.364 81.696C221.068 80.832 221.94 80.136 222.98 79.608C224.036 79.08 225.268 78.816 226.676 78.816C228.148 78.816 229.42 79.08 230.492 79.608C231.564 80.136 232.444 80.84 233.132 81.72C233.836 82.584 234.356 83.528 234.692 84.552C235.044 85.576 235.22 86.592 235.22 87.6C235.22 88.592 235.052 89.608 234.716 90.648C234.38 91.672 233.86 92.624 233.156 93.504C232.468 94.368 231.604 95.064 230.564 95.592C229.524 96.12 228.292 96.384 226.868 96.384ZM226.916 95.4C227.908 95.4 228.772 95.192 229.508 94.776C230.244 94.344 230.852 93.776 231.332 93.072C231.828 92.352 232.196 91.56 232.436 90.696C232.692 89.816 232.82 88.936 232.82 88.056C232.82 87.064 232.684 86.08 232.412 85.104C232.14 84.128 231.74 83.24 231.212 82.44C230.684 81.64 230.028 81 229.244 80.52C228.476 80.024 227.596 79.776 226.604 79.776C225.612 79.776 224.74 79.992 223.988 80.424C223.252 80.856 222.636 81.432 222.14 82.152C221.66 82.856 221.292 83.648 221.036 84.528C220.796 85.392 220.676 86.272 220.676 87.168C220.676 88.048 220.796 88.968 221.036 89.928C221.292 90.888 221.676 91.784 222.188 92.616C222.7 93.448 223.348 94.12 224.132 94.632C224.916 95.144 225.844 95.4 226.916 95.4ZM240.504 96V95.208C241.112 95.176 241.528 95.04 241.752 94.8C241.976 94.544 242.096 94.2 242.112 93.768C242.144 93.32 242.16 92.816 242.16 92.256V81.888C242.16 81.568 242.168 81.264 242.184 80.976C242.2 80.672 242.216 80.4 242.232 80.16C241.944 80.176 241.656 80.192 241.368 80.208C241.08 80.224 240.792 80.24 240.504 80.256V79.2C241.4 79.184 242.304 79.168 243.216 79.152C244.144 79.136 245.072 79.144 246 79.176C247.552 79.192 248.8 79.376 249.744 79.728C250.704 80.064 251.408 80.552 251.856 81.192C252.304 81.816 252.528 82.576 252.528 83.472C252.544 84.096 252.424 84.736 252.168 85.392C251.928 86.032 251.48 86.608 250.824 87.12C250.184 87.632 249.256 88.016 248.04 88.272C248.36 88.496 248.64 88.784 248.88 89.136C249.12 89.488 249.392 89.896 249.696 90.36L251.328 92.928C251.6 93.36 251.864 93.752 252.12 94.104C252.376 94.44 252.672 94.712 253.008 94.92C253.344 95.112 253.76 95.208 254.256 95.208V96H251.232C250.768 95.584 250.376 95.168 250.056 94.752C249.752 94.336 249.432 93.864 249.096 93.336L247.488 90.768C247.28 90.432 247.04 90.048 246.768 89.616C246.512 89.168 246.216 88.792 245.88 88.488C245.624 88.504 245.352 88.512 245.064 88.512C244.792 88.512 244.52 88.504 244.248 88.488V93.144C244.248 93.576 244.24 93.952 244.224 94.272C244.224 94.576 244.208 94.832 244.176 95.04C244.368 95.024 244.56 95.016 244.752 95.016C244.944 95 245.136 94.984 245.328 94.968C245.52 94.952 245.712 94.944 245.904 94.944V96H240.504ZM245.736 87.6C246.616 87.568 247.384 87.424 248.04 87.168C248.712 86.912 249.24 86.504 249.624 85.944C250.008 85.384 250.2 84.648 250.2 83.736C250.2 83.128 250.112 82.6 249.936 82.152C249.776 81.688 249.52 81.304 249.168 81C248.816 80.696 248.368 80.472 247.824 80.328C247.28 80.168 246.64 80.088 245.904 80.088C245.312 80.088 244.896 80.208 244.656 80.448C244.432 80.688 244.304 81.024 244.272 81.456C244.256 81.872 244.248 82.368 244.248 82.944V87.552C244.504 87.568 244.744 87.584 244.968 87.6C245.208 87.616 245.464 87.616 245.736 87.6ZM268.119 95.208C268.727 95.176 269.143 95.04 269.367 94.8C269.591 94.544 269.711 94.2 269.727 93.768C269.759 93.32 269.775 92.816 269.775 92.256V81.888C269.775 81.568 269.783 81.264 269.799 80.976C269.815 80.672 269.831 80.4 269.847 80.16C269.559 80.176 269.271 80.192 268.983 80.208C268.695 80.224 268.407 80.24 268.119 80.256V79.2L273.783 79.176C275.223 79.176 276.543 79.344 277.743 79.68C278.943 80.016 279.975 80.536 280.839 81.24C281.719 81.928 282.391 82.808 282.855 83.88C283.335 84.936 283.575 86.184 283.575 87.624C283.575 88.728 283.383 89.784 282.999 90.792C282.615 91.8 282.039 92.696 281.271 93.48C280.503 94.248 279.543 94.864 278.391 95.328C277.255 95.776 275.935 96 274.431 96H268.119V95.208ZM271.863 93.168C271.863 93.6 271.855 93.968 271.839 94.272C271.839 94.576 271.823 94.832 271.791 95.04C272.223 95.056 272.615 95.072 272.967 95.088C273.335 95.088 273.639 95.088 273.879 95.088C274.135 95.088 274.295 95.088 274.359 95.088C275.399 95.088 276.335 94.896 277.167 94.512C278.015 94.128 278.735 93.6 279.327 92.928C279.935 92.24 280.399 91.44 280.719 90.528C281.055 89.6 281.223 88.6 281.223 87.528C281.223 86.008 280.943 84.696 280.383 83.592C279.839 82.472 278.999 81.608 277.863 81C276.727 80.376 275.279 80.064 273.519 80.064C272.927 80.064 272.511 80.184 272.271 80.424C272.047 80.664 271.919 81 271.887 81.432C271.871 81.864 271.863 82.368 271.863 82.944V93.168ZM297.239 89.784C297.239 89.08 297.143 88.576 296.951 88.272C296.759 87.968 296.455 87.784 296.039 87.72C295.623 87.656 295.071 87.64 294.383 87.672L292.631 87.744V93.24C292.631 93.672 292.623 94.04 292.607 94.344C292.607 94.648 292.591 94.904 292.559 95.112L297.143 95.04C297.847 95.024 298.455 94.912 298.967 94.704C299.479 94.48 299.879 94.096 300.167 93.552C300.455 93.008 300.599 92.264 300.599 91.32H301.415L301.271 96H288.887V95.208C289.495 95.176 289.911 95.04 290.135 94.8C290.359 94.544 290.479 94.2 290.495 93.768C290.527 93.32 290.543 92.816 290.543 92.256V81.888C290.543 81.568 290.551 81.264 290.567 80.976C290.583 80.672 290.599 80.4 290.615 80.16C290.327 80.176 290.039 80.192 289.751 80.208C289.463 80.224 289.175 80.24 288.887 80.256V79.2H300.431L300.551 83.4H299.759C299.759 82.456 299.615 81.744 299.327 81.264C299.039 80.768 298.647 80.44 298.151 80.28C297.671 80.104 297.127 80.024 296.519 80.04L294.455 80.088C293.863 80.104 293.439 80.216 293.183 80.424C292.927 80.632 292.767 80.944 292.703 81.36C292.655 81.76 292.631 82.288 292.631 82.944V86.784L297.143 86.808L296.975 84.744H298.031V89.784H297.239ZM316.369 84.288C316.321 83.52 316.137 82.792 315.817 82.104C315.497 81.416 315.033 80.856 314.425 80.424C313.817 79.992 313.041 79.776 312.097 79.776C311.105 79.776 310.345 80.056 309.817 80.616C309.289 81.176 309.025 81.832 309.025 82.584C309.025 83.256 309.217 83.824 309.601 84.288C309.985 84.736 310.481 85.136 311.089 85.488C311.713 85.824 312.369 86.152 313.057 86.472C313.665 86.744 314.273 87.04 314.881 87.36C315.489 87.664 316.041 88.016 316.537 88.416C317.033 88.816 317.425 89.296 317.713 89.856C318.017 90.4 318.169 91.056 318.169 91.824C318.169 92.704 317.945 93.488 317.497 94.176C317.065 94.864 316.433 95.408 315.601 95.808C314.769 96.192 313.753 96.384 312.553 96.384C311.833 96.384 311.089 96.28 310.321 96.072C309.553 95.864 308.873 95.56 308.281 95.16L308.401 96.192H307.153L307.009 91.08H307.945C308.025 92.488 308.513 93.56 309.409 94.296C310.305 95.016 311.385 95.376 312.649 95.376C313.273 95.376 313.849 95.264 314.377 95.04C314.905 94.8 315.321 94.456 315.625 94.008C315.945 93.56 316.105 93.016 316.105 92.376C316.105 91.656 315.913 91.056 315.529 90.576C315.145 90.096 314.649 89.68 314.041 89.328C313.433 88.976 312.785 88.64 312.097 88.32C311.489 88.048 310.889 87.76 310.297 87.456C309.705 87.152 309.161 86.808 308.665 86.424C308.185 86.024 307.793 85.552 307.489 85.008C307.201 84.464 307.057 83.808 307.057 83.04C307.057 82.624 307.129 82.176 307.273 81.696C307.417 81.216 307.665 80.76 308.017 80.328C308.385 79.88 308.881 79.52 309.505 79.248C310.145 78.96 310.953 78.816 311.929 78.816C312.537 78.816 313.217 78.904 313.969 79.08C314.737 79.24 315.449 79.56 316.105 80.04L316.009 79.008H317.233V84.288H316.369ZM329.074 79.992C328.482 80.008 328.066 80.144 327.826 80.4C327.602 80.656 327.474 81 327.442 81.432C327.426 81.864 327.418 82.368 327.418 82.944V93.144C327.418 93.576 327.41 93.952 327.394 94.272C327.394 94.576 327.378 94.832 327.346 95.04C327.634 95.024 327.922 95.008 328.21 94.992C328.498 94.976 328.786 94.96 329.074 94.944V96H323.674V95.208C324.282 95.176 324.698 95.04 324.922 94.8C325.146 94.544 325.266 94.2 325.282 93.768C325.314 93.32 325.33 92.816 325.33 92.256V81.888C325.33 81.568 325.338 81.264 325.354 80.976C325.37 80.672 325.386 80.4 325.402 80.16C325.114 80.176 324.826 80.192 324.538 80.208C324.25 80.224 323.962 80.24 323.674 80.256V79.2H329.074V79.992ZM342.59 96.384C340.99 96.384 339.574 96.048 338.342 95.376C337.11 94.704 336.15 93.736 335.462 92.472C334.774 91.208 334.43 89.704 334.43 87.96C334.43 86.824 334.598 85.72 334.934 84.648C335.286 83.56 335.806 82.576 336.494 81.696C337.198 80.816 338.07 80.12 339.11 79.608C340.166 79.08 341.39 78.816 342.782 78.816C343.358 78.816 343.942 78.872 344.534 78.984C345.126 79.08 345.694 79.232 346.238 79.44C346.798 79.632 347.302 79.864 347.75 80.136L347.654 78.984H348.974V84.48H348.11C348.046 83.472 347.774 82.624 347.294 81.936C346.83 81.232 346.222 80.696 345.47 80.328C344.718 79.96 343.878 79.776 342.95 79.776C342.102 79.776 341.302 79.968 340.55 80.352C339.814 80.72 339.158 81.248 338.582 81.936C338.022 82.608 337.582 83.408 337.262 84.336C336.942 85.264 336.782 86.288 336.782 87.408C336.782 88.912 337.054 90.256 337.598 91.44C338.142 92.624 338.894 93.552 339.854 94.224C340.83 94.896 341.95 95.232 343.214 95.232C343.646 95.232 344.094 95.192 344.558 95.112C345.038 95.032 345.51 94.904 345.974 94.728C346.454 94.536 346.902 94.304 347.318 94.032V91.104C347.318 90.72 347.318 90.336 347.318 89.952C347.318 89.552 347.318 89.16 347.318 88.776C347.046 88.792 346.766 88.808 346.478 88.824C346.19 88.84 345.91 88.856 345.638 88.872V87.816H351.062V88.608C350.614 88.608 350.27 88.728 350.03 88.968C349.79 89.192 349.622 89.472 349.526 89.808C349.43 90.128 349.374 90.448 349.358 90.768C349.342 91.072 349.334 91.304 349.334 91.464V95.136H348.686C348.43 95.136 348.078 95.184 347.63 95.28C347.182 95.376 346.67 95.536 346.094 95.76C345.598 95.952 345.022 96.104 344.366 96.216C343.71 96.328 343.118 96.384 342.59 96.384ZM369.128 96.384L359.552 83.52C359.408 83.328 359.264 83.144 359.12 82.968C358.992 82.776 358.856 82.584 358.712 82.392H358.688L358.76 92.664C358.76 93.064 358.76 93.464 358.76 93.864C358.76 94.264 358.744 94.656 358.712 95.04C359 95.024 359.288 95.008 359.576 94.992C359.864 94.976 360.152 94.96 360.44 94.944V96H356.048V95.208C356.544 95.208 356.896 95.104 357.104 94.896C357.328 94.672 357.472 94.416 357.536 94.128C357.6 93.824 357.632 93.552 357.632 93.312L357.656 81.768C357.656 81.496 357.656 81.224 357.656 80.952C357.656 80.68 357.656 80.416 357.656 80.16C357.4 80.176 357.136 80.192 356.864 80.208C356.592 80.224 356.32 80.24 356.048 80.256V79.2H358.904L367.904 91.248C368.112 91.52 368.312 91.792 368.504 92.064C368.712 92.336 368.92 92.608 369.128 92.88H369.152L369.176 81.888C369.176 81.568 369.184 81.264 369.2 80.976C369.216 80.672 369.232 80.4 369.248 80.16C368.96 80.176 368.672 80.192 368.384 80.208C368.096 80.224 367.808 80.24 367.52 80.256V79.2H371.936V79.992C371.344 80.008 370.936 80.144 370.712 80.4C370.488 80.656 370.368 81 370.352 81.432C370.336 81.864 370.328 82.368 370.328 82.944L370.28 96.384H369.128Z" fill="black"/>
<path d="M14.712 72V70.416C15.672 70.416 16.408 70.16 16.92 69.648C17.432 69.136 17.848 68.432 18.168 67.536C18.52 66.64 18.92 65.6 19.368 64.416L29.256 37.488H30.408L41.112 64.8C41.368 65.472 41.656 66.336 41.976 67.392C42.296 68.448 42.424 69.344 42.36 70.08C42.904 70.048 43.448 70.016 43.992 69.984C44.536 69.952 45.08 69.92 45.624 69.888V72H34.632V70.416C35.848 70.384 36.648 70.112 37.032 69.6C37.416 69.088 37.56 68.48 37.464 67.776C37.368 67.072 37.208 66.432 36.984 65.856L35.304 61.344L22.824 61.632L21.144 66.768C20.92 67.536 20.712 68.144 20.52 68.592C20.36 69.04 20.168 69.536 19.944 70.08C20.584 70.048 21.208 70.016 21.816 69.984C22.456 69.952 23.08 69.92 23.688 69.888V72H14.712ZM23.544 59.568H34.632L31.224 50.4C30.872 49.408 30.504 48.432 30.12 47.472C29.768 46.48 29.416 45.488 29.064 44.496H28.968C28.648 45.392 28.312 46.288 27.96 47.184C27.64 48.08 27.304 48.992 26.952 49.92L23.544 59.568ZM71.0629 72.48C69.6549 69.28 68.2309 66.096 66.7909 62.928C65.3509 59.728 63.9429 56.496 62.5669 53.232C62.1189 52.208 61.6709 51.184 61.2229 50.16C60.8069 49.104 60.3909 48.048 59.9749 46.992C59.5909 45.936 59.1909 44.88 58.7749 43.824C58.7749 44.176 58.7589 44.528 58.7269 44.88C58.7269 45.232 58.7269 45.584 58.7269 45.936C58.6949 47.088 58.6469 48.48 58.5829 50.112C58.5509 51.712 58.5029 53.44 58.4389 55.296C58.3749 57.12 58.3269 58.96 58.2949 60.816C58.2629 62.64 58.2309 64.368 58.1989 66C58.1669 66.704 58.1349 67.408 58.1029 68.112C58.1029 68.816 58.0709 69.472 58.0069 70.08C58.6149 70.048 59.2069 70.016 59.7829 69.984C60.3909 69.952 60.9989 69.92 61.6069 69.888V72H52.4389V70.416C53.4309 70.384 54.1509 70.176 54.5989 69.792C55.0789 69.376 55.3829 68.832 55.5109 68.16C55.6389 67.488 55.7189 66.768 55.7509 66L56.6629 44.112C56.6949 43.472 56.7109 42.832 56.7109 42.192C56.7429 41.552 56.7749 40.928 56.8069 40.32C56.2309 40.352 55.6549 40.384 55.0789 40.416C54.5029 40.416 53.9269 40.432 53.3509 40.464V38.4H60.6949L68.9509 57.456C69.3669 58.416 69.7669 59.376 70.1509 60.336C70.5669 61.296 70.9829 62.256 71.3989 63.216C71.8469 64.176 72.2789 65.152 72.6949 66.144H72.7909C73.1429 65.28 73.5589 64.256 74.0389 63.072C74.5189 61.856 74.9189 60.816 75.2389 59.952C76.6469 56.432 78.1029 52.912 79.6069 49.392C81.1429 45.84 82.6469 42.176 84.1189 38.4H91.2229V39.984C90.4229 39.952 89.7669 40.112 89.2549 40.464C88.7429 40.784 88.3749 41.328 88.1509 42.096C87.9269 42.864 87.8469 43.904 87.9109 45.216L89.1589 67.056C89.2229 67.6 89.2549 68.128 89.2549 68.64C89.2549 69.152 89.2549 69.616 89.2549 70.032C89.8309 70 90.4069 69.984 90.9829 69.984C91.5909 69.952 92.1829 69.92 92.7589 69.888V72H82.0069V70.416C82.9989 70.384 83.7349 70.144 84.2149 69.696C84.6949 69.248 84.9829 68.608 85.0789 67.776C85.2069 66.944 85.2389 65.92 85.1749 64.704L84.2149 48.864C84.1829 48.352 84.1509 47.84 84.1189 47.328C84.0869 46.816 84.0549 46.304 84.0229 45.792C83.9909 45.28 83.9589 44.768 83.9269 44.256C83.8309 44.48 83.7189 44.72 83.5909 44.976C83.4949 45.232 83.3989 45.504 83.3029 45.792L72.5029 72.48H71.0629Z" fill="black"/>
<rect width="362" height="4" transform="translate(120 51)" fill="black"/>
<rect x="0.5" y="0.5" width="109" height="109" rx="10.5" stroke="black"/>
</svg>
